# xmcd
#
# Track frame offsets: 
#        150
#        12218
#        24225
#        39046
#        52683
#        66632
#        79515
#        93115
#        106278
#        118460
#        129760
#        141154
#        157409
#        170204
#        181504
#        196368
#        211404
#        222532
#        237684
#        249586
#        262759
#
# Disc length: 3702 seconds
#
# Revision: 2
# Processed by: cddbd v1.5.2PL0 Copyright (c) Steve Scherf et al.
# Submitted via: ExactAudioCopyFreeDBPlugin 1.0
#
DISCID=230e7415
DTITLE=Billie Jo Spears - Readers Digest's Country Classics - CD 2
DYEAR=1994
DGENRE=Country
TTITLE0=Misty Blue
TTITLE1=I've Got To Go
TTITLE2=Hurt
TTITLE3=Happy Ever After
TTITLE4=Standing Tall
TTITLE5=There's more To A Tear Than Meets The eye
TTITLE6=Permanently lonely
TTITLE7=She's Out There Dancing
TTITLE8=All I Want Is You
TTITLE9=Till Something Better Comes Along
TTITLE10=Broken Lady
TTITLE11=Love Let Me Down
TTITLE12=Faded love
TTITLE13=When You hurt Me (More Than I Love You)
TTITLE14=(Hey Won't You Play) Another Somebody Done Somebody Wrong son
TTITLE14=g
TTITLE15=Every Time I Sing A Love Song
TTITLE16=Everyday I Have To Cry
TTITLE17=Here Comes Those Lies Again
TTITLE18=Rainy Days And Stormy Nights
TTITLE19=Love Ain't Gonna Wait For Us
TTITLE20=I Will Survive
EXTD=Reader's Digest Collection dics 2
EXTT0=
EXTT1=
EXTT2=
EXTT3=
EXTT4=
EXTT5=
EXTT6=
EXTT7=
EXTT8=
EXTT9=
EXTT10=
EXTT11=
EXTT12=
EXTT13=
EXTT14=
EXTT15=
EXTT16=
EXTT17=
EXTT18=
EXTT19=
EXTT20=
PLAYORDER=
